<?xml version="1.0" encoding="UTF-8"?>
<svg width="480" height="320" viewBox="0 0 480 320" fill="none" xmlns="http://www.w3.org/2000/svg">
  <rect width="480" height="320" rx="32" fill="#F8FAFC"/>
  <!-- Winding path -->
  <path d="M60 260 Q120 180 180 220 Q240 260 300 180 Q360 100 420 140" stroke="#7C3AED" stroke-width="4" fill="none" stroke-linecap="round" stroke-dasharray="8 8" />
  <!-- Ants on the path -->
  <!-- Ant 1 -->
  <g>
    <ellipse cx="80" cy="240" rx="10" ry="7" fill="#6366F1" />
    <ellipse cx="70" cy="240" rx="6" ry="4" fill="#6366F1" />
    <ellipse cx="90" cy="240" rx="6" ry="4" fill="#6366F1" />
    <!-- Legs -->
    <line x1="70" y1="244" x2="66" y2="248" stroke="#6366F1" stroke-width="2" />
    <line x1="70" y1="236" x2="66" y2="232" stroke="#6366F1" stroke-width="2" />
    <line x1="90" y1="244" x2="94" y2="248" stroke="#6366F1" stroke-width="2" />
    <line x1="90" y1="236" x2="94" y2="232" stroke="#6366F1" stroke-width="2" />
    <!-- Antennae -->
    <line x1="75" y1="236" x2="72" y2="230" stroke="#6366F1" stroke-width="1.5" />
    <line x1="85" y1="236" x2="88" y2="230" stroke="#6366F1" stroke-width="1.5" />
    <!-- Leaf -->
    <ellipse cx="60" cy="250" rx="7" ry="3" fill="#34D399" />
  </g>
  <!-- Ant 2 -->
  <g>
    <ellipse cx="170" cy="220" rx="10" ry="7" fill="#FBBF24" />
    <ellipse cx="160" cy="220" rx="6" ry="4" fill="#FBBF24" />
    <ellipse cx="180" cy="220" rx="6" ry="4" fill="#FBBF24" />
    <!-- Legs -->
    <line x1="160" y1="224" x2="156" y2="228" stroke="#FBBF24" stroke-width="2" />
    <line x1="160" y1="216" x2="156" y2="212" stroke="#FBBF24" stroke-width="2" />
    <line x1="180" y1="224" x2="184" y2="228" stroke="#FBBF24" stroke-width="2" />
    <line x1="180" y1="216" x2="184" y2="212" stroke="#FBBF24" stroke-width="2" />
    <!-- Antennae -->
    <line x1="165" y1="216" x2="162" y2="210" stroke="#FBBF24" stroke-width="1.5" />
    <line x1="175" y1="216" x2="178" y2="210" stroke="#FBBF24" stroke-width="1.5" />
    <!-- Seed -->
    <circle cx="150" cy="230" r="4" fill="#7C3AED" />
  </g>
  <!-- Ant 3 -->
  <g>
    <ellipse cx="300" cy="180" rx="10" ry="7" fill="#38BDF8" />
    <ellipse cx="290" cy="180" rx="6" ry="4" fill="#38BDF8" />
    <ellipse cx="310" cy="180" rx="6" ry="4" fill="#38BDF8" />
    <!-- Legs -->
    <line x1="290" y1="184" x2="286" y2="188" stroke="#38BDF8" stroke-width="2" />
    <line x1="290" y1="176" x2="286" y2="172" stroke="#38BDF8" stroke-width="2" />
    <line x1="310" y1="184" x2="314" y2="188" stroke="#38BDF8" stroke-width="2" />
    <line x1="310" y1="176" x2="314" y2="172" stroke="#38BDF8" stroke-width="2" />
    <!-- Antennae -->
    <line x1="295" y1="176" x2="292" y2="170" stroke="#38BDF8" stroke-width="1.5" />
    <line x1="305" y1="176" x2="308" y2="170" stroke="#38BDF8" stroke-width="1.5" />
    <!-- Leaf -->
    <ellipse cx="320" cy="170" rx="7" ry="3" fill="#F472B6" />
  </g>
  <!-- Ant 4 -->
  <g>
    <ellipse cx="420" cy="140" rx="10" ry="7" fill="#F472B6" />
    <ellipse cx="410" cy="140" rx="6" ry="4" fill="#F472B6" />
    <ellipse cx="430" cy="140" rx="6" ry="4" fill="#F472B6" />
    <!-- Legs -->
    <line x1="410" y1="144" x2="406" y2="148" stroke="#F472B6" stroke-width="2" />
    <line x1="410" y1="136" x2="406" y2="132" stroke="#F472B6" stroke-width="2" />
    <line x1="430" y1="144" x2="434" y2="148" stroke="#F472B6" stroke-width="2" />
    <line x1="430" y1="136" x2="434" y2="132" stroke="#F472B6" stroke-width="2" />
    <!-- Antennae -->
    <line x1="415" y1="136" x2="412" y2="130" stroke="#F472B6" stroke-width="1.5" />
    <line x1="425" y1="136" x2="428" y2="130" stroke="#F472B6" stroke-width="1.5" />
    <!-- Seed -->
    <circle cx="440" cy="130" r="4" fill="#34D399" />
  </g>
  <!-- Shared goal: big leaf at the end -->
  <ellipse cx="450" cy="120" rx="18" ry="8" fill="#7C3AED" fill-opacity="0.18" />
  <ellipse cx="450" cy="120" rx="12" ry="5" fill="#34D399" fill-opacity="0.8" />
  <!-- Decorative dots -->
  <circle cx="80" cy="40" r="4" fill="#7C3AED" fill-opacity="0.2" />
  <circle cx="400" cy="40" r="4" fill="#7C3AED" fill-opacity="0.2" />
  <circle cx="80" cy="280" r="4" fill="#7C3AED" fill-opacity="0.2" />
  <circle cx="400" cy="280" r="4" fill="#7C3AED" fill-opacity="0.2" />
</svg> 